{"title":"Pretty.Little.Liars.S06.Special-5.Years.Forward.HDTV.x264-BAJSKO","uid":12834112,"size":279235371,"categoryP":"video","categoryS":"tv_shows","magnet":"?xt=urn:btih:311597c405a95f7af0535b1bebd93ece6f3d90f8&amp;dn=Pretty.Little.Liars.S06.Special-5.Years.Forward.HDTV.x264-BAJSKO&amp;tr=udp%3A%2F%2Ftracker.leechers-paradise.org%3A6969&amp;tr=udp%3A%2F%2Fzer0day.ch%3A1337&amp;tr=udp%3A%2F%2Fopen.demonii.com%3A1337&amp;tr=udp%3A%2F%2Ftracker.coppersurfer.tk%3A6969&amp;tr=udp%3A%2F%2Fexodus.desync.com%3A6969","seeders":6,"leechers":3,"uploader":"TheRival","files":3,"time":1448420612,"description":"Video\r\nID                                       : 1\r\nFormat                                   : AVC\r\nFormat/Info                              : Advanced Video Codec\r\nFormat profile                           :   \r\nFormat settings, CABAC                   : Yes\r\nFormat settings, ReFrames                : 5 frames\r\nCodec ID                                 : avc1\r\nCodec ID/Info                            : Advanced Video Coding\r\nDuration                                 : 42mn 52s\r\nBit rate                                 : 752 Kbps\r\nMaximum bit rate                         : 4 075 Kbps\r\nWidth                                    : 720 pixels\r\nHeight                                   : 404 pixels\r\nDisplay aspect ratio                     : 16:9\r\nFrame rate mode                          : Constant\r\nFrame rate                               : 23.976 fps\r\nColor space                              : YUV\r\nChroma subsampling                       : 4:2:0\r\nBit depth                                : 8 bits\r\nScan type                                : Progressive\r\nBits/(Pixel*Frame)                       : 0.108\r\nStream size                              : 231 MiB (87%)\r\nWriting library                          : x264 core 148 r2638 7599210\r\nEncoding settings                        : cabac=1 / ref=5 / deblock=1:1:1 / analyse=0x3:0x133 / me=umh / subme=9 / psy=1 / psy_rd=1.00:0.00 / mixed_ref=1 / me_range=16 / chroma_me=1 / trellis=2 / 8x8dct=1 / cqm=0 / deadzone=21,11 / fast_pskip=1 / chroma_qp_offset=-2 / threads=13 / lookahead_threads=1 / sliced_threads=0 / nr=0 / decimate=1 / interlaced=0 / bluray_compat=0 / constrained_intra=0 / bframes=3 / b_pyramid=2 / b_adapt=2 / b_bias=0 / direct=3 / weightb=1 / open_gop=0 / weightp=2 / keyint=250 / keyint_min=23 / scenecut=40 / intra_refresh=0 / rc_lookahead=60 / rc=crf / mbtree=1 / crf=20.0 / qcomp=0.60 / qpmin=0 / qpmax=69 / qpstep=4 / ip_ratio=1.40 / aq=1:1.00\r\nEncoded date                             : UTC 2015-11-24 18:35:27\r\nTagged date                              : UTC 2015-11-24 18:54:16\r\nColor range                              : Limited\r\nMatrix coefficients                      : BT.709\r\n\r\nAudio\r\nID                                       : 2\r\nFormat                                   : AAC\r\nFormat/Info                              : Advanced Audio Codec\r\nFormat profile                           : LC\r\nCodec ID                                 : 40\r\nDuration                                 : 42mn 51s\r\nBit rate mode                            : Variable\r\nBit rate                                 : 112 Kbps\r\nMaximum bit rate                         : 144 Kbps\r\nChannel(s)                               : 2 channels\r\nChannel positions                        : Front: L R\r\nSampling rate                            : 48.0 KHz\r\nCompression mode                         : Lossy\r\nStream size                              : 34.4 MiB (13%)\r\nEncoded date                             : UTC 2015-11-24 18:54:16\r\nTagged date                              : UTC 2015-11-24 18:54:16","torrent":{"xt":"urn:btih:311597c405a95f7af0535b1bebd93ece6f3d90f8","amp;dn":"Pretty.Little.Liars.S06.Special-5.Years.Forward.HDTV.x264-BAJSKO","amp;tr":["udp%3A%2F%2Ftracker.leechers-paradise.org%3A6969","udp%3A%2F%2Fzer0day.ch%3A1337","udp%3A%2F%2Fopen.demonii.com%3A1337","udp%3A%2F%2Ftracker.coppersurfer.tk%3A6969","udp%3A%2F%2Fexodus.desync.com%3A6969"],"infoHash":"311597c405a95f7af0535b1bebd93ece6f3d90f8","infoHashBuffer":{"type":"Buffer","data":[49,21,151,196,5,169,95,122,240,83,91,27,235,217,62,206,111,61,144,248]},"announce":[],"urlList":[]}}